HIERARCHY
ROOT joint_Root
{
	OFFSET 0.0 0.0 0.0
	CHANNELS 6 Xposition Yposition Zposition Zrotation Xrotation Yrotation 
	JOINT Hips
	{
		OFFSET -0.726466 93.3139 -2.00062
		CHANNELS 6 Xposition Yposition Zposition Zrotation Xrotation Yrotation 
		JOINT Spine
		{
			OFFSET 15.7357 0.0 0.0
			CHANNELS 6 Xposition Yposition Zposition Zrotation Xrotation Yrotation 
			JOINT Chest
			{
				OFFSET 8.98455 -0.406207 0.0
				CHANNELS 6 Xposition Yposition Zposition Zrotation Xrotation Yrotation 
				JOINT Neck
				{
					OFFSET 16.3773 0.0 0.0
					CHANNELS 6 Xposition Yposition Zposition Zrotation Xrotation Yrotation 
					JOINT Head
					{
						OFFSET 6.45672 0.0 0.0
						CHANNELS 6 Xposition Yposition Zposition Zrotation Xrotation Yrotation 
						End Site
						{
							OFFSET 0.0 0.0 0.0
						}
					}
				}
				JOINT Shoulder_L
				{
					OFFSET 12.9942 -0.242716 4.98039
					CHANNELS 6 Xposition Yposition Zposition Zrotation Xrotation Yrotation 
					JOINT UpperArm_L
					{
						OFFSET 5.34809 0.0 0.0
						CHANNELS 6 Xposition Yposition Zposition Zrotation Xrotation Yrotation 
						JOINT LowerArm_L
						{
							OFFSET 24.3286 1.87007e-05 0.0
							CHANNELS 6 Xposition Yposition Zposition Zrotation Xrotation Yrotation 
							JOINT Hand_L
							{
								OFFSET 22.2916 0.0 0.0
								CHANNELS 6 Xposition Yposition Zposition Zrotation Xrotation Yrotation 
								End Site
								{
									OFFSET 0.0 0.0 0.0
								}
							}
						}
					}
				}
				JOINT Shoulder_R
				{
					OFFSET 12.9945 -0.242716 -4.98039
					CHANNELS 6 Xposition Yposition Zposition Zrotation Xrotation Yrotation 
					JOINT UpperArm_R
					{
						OFFSET -5.34813 0.0 0.0
						CHANNELS 6 Xposition Yposition Zposition Zrotation Xrotation Yrotation 
						JOINT LowerArm_R
						{
							OFFSET -24.3289 0.000322201 0.0
							CHANNELS 6 Xposition Yposition Zposition Zrotation Xrotation Yrotation 
							JOINT Hand_R
							{
								OFFSET -22.2915 -0.000108084 0.0
								CHANNELS 6 Xposition Yposition Zposition Zrotation Xrotation Yrotation 
								End Site
								{
									OFFSET 0.0 0.0 0.0
								}
							}
						}
					}
				}
			}
		}
		JOINT UpperLeg_L
		{
			OFFSET -2.19248 -6.46944 0.0
			CHANNELS 6 Xposition Yposition Zposition Zrotation Xrotation Yrotation 
			JOINT LowerLeg_L
			{
				OFFSET 39.0811 0.0 -1.23785e-05
				CHANNELS 6 Xposition Yposition Zposition Zrotation Xrotation Yrotation 
				JOINT Foot_L
				{
					OFFSET 40.9854 0.0 -1.26872e-05
					CHANNELS 6 Xposition Yposition Zposition Zrotation Xrotation Yrotation 
					JOINT Toes_L
					{
						OFFSET 11.7543 0.0 0.0
						CHANNELS 6 Xposition Yposition Zposition Zrotation Xrotation Yrotation 
						End Site
						{
							OFFSET 0.0 0.0 0.0
						}
					}
				}
			}
		}
		JOINT UpperLeg_R
		{
			OFFSET -2.19251 6.46944 0.0
			CHANNELS 6 Xposition Yposition Zposition Zrotation Xrotation Yrotation 
			JOINT LowerLeg_R
			{
				OFFSET -39.0811 -0.00228153 -0.0401928
				CHANNELS 6 Xposition Yposition Zposition Zrotation Xrotation Yrotation 
				JOINT Foot_R
				{
					OFFSET -40.9854 0.0 0.0
					CHANNELS 6 Xposition Yposition Zposition Zrotation Xrotation Yrotation 
					JOINT Toes_R
					{
						OFFSET -11.7543 0.0 0.0
						CHANNELS 6 Xposition Yposition Zposition Zrotation Xrotation Yrotation 
						End Site
						{
							OFFSET 0.0 0.0 0.0
						}
					}
				}
			}
		}
	}
}
MOTION
Frames:	4
Frame Time:	0.0333333
0.000000 0.000000 0.000000 0.000000 0.000000 -0.000000 0.096854 93.135100 -37.322000 84.801100 -6.962910 -2.909680 15.735700 0.000005 -0.000001 125.805000 82.678900 -124.445000 8.984550 -0.406207 -0.000000 4.046170 8.508980 2.418830 16.377300 -0.000001 -0.000001 3.654870 -0.406856 -0.559942 6.456720 -0.000001 -0.000000 7.604880 -7.549990 0.921612 12.994200 -0.242716 4.980390 -84.719000 -11.335400 -64.813600 5.348090 -0.000007 -0.000001 -74.060100 32.350600 23.111300 24.328600 0.000019 0.000005 5.006280 -1.416500 -105.759000 22.291600 -0.000001 0.000005 5.326290 5.622710 -12.808600 12.994500 -0.242716 -4.980390 90.892700 -2.723100 -71.841800 -5.348130 -0.000001 -0.000004 -59.096300 43.231000 -33.300100 -24.328900 0.000322 -0.000009 -1.684690 0.516087 -107.013000 -22.291500 -0.000108 -0.000004 12.270000 5.553050 -8.850800 -2.192480 -6.469440 -0.000000 -179.255000 -7.788230 -21.409200 39.081100 -0.000007 -0.000012 -0.005911 0.029373 11.376800 40.985400 -0.000006 -0.000013 -2.735180 -0.294459 -70.296000 11.754300 -0.000000 0.000003 -0.006996 -0.079641 -19.819000 -2.192510 6.469440 -0.000001 -179.475000 6.265640 -170.296000 -39.081100 -0.002282 -0.040193 0.110493 -0.095077 48.440400 -40.985400 0.000008 0.000006 2.139000 -2.334710 -34.129800 -11.754300 -0.000006 -0.000006 -0.027220 -0.204428 -24.941700
0.000000 0.000000 0.000000 0.000000 0.000000 -0.000000 0.308143 90.959100 -27.855100 87.363400 -5.244630 -1.905890 15.735700 0.000005 -0.000001 114.366000 82.896100 -113.906000 8.984550 -0.406207 -0.000000 5.174260 5.838680 0.653960 16.377300 -0.000001 -0.000001 2.492550 -0.382103 -0.391855 6.456720 -0.000001 -0.000000 6.004020 -6.166220 0.560641 12.994200 -0.242716 4.980390 -85.481800 -10.200100 -65.952600 5.348090 -0.000007 -0.000001 -73.594800 28.607700 21.725100 24.328600 0.000019 0.000005 5.160910 -1.478480 -105.943000 22.291600 -0.000001 0.000005 5.890270 5.620820 -12.676600 12.994500 -0.242716 -4.980390 90.470400 -1.421460 -71.685800 -5.348130 -0.000001 -0.000004 -59.726800 44.005800 -29.388800 -24.328900 0.000322 -0.000009 0.221892 -0.041947 -100.851000 -22.291500 -0.000108 -0.000004 11.879700 5.546280 -8.531420 -2.192480 -6.469440 -0.000000 176.014000 -7.080110 -26.448500 39.081100 -0.000007 -0.000012 0.327343 -0.660622 26.359500 40.985400 -0.000006 -0.000013 6.089510 -3.631110 -68.773400 11.754300 -0.000000 0.000003 -0.010521 -0.107502 -20.957400 -2.192510 6.469440 -0.000001 178.517000 5.977510 -174.969000 -39.081100 -0.002282 -0.040193 0.076107 -0.034916 64.419000 -40.985400 0.000008 0.000006 5.349740 -4.558110 -37.032800 -11.754300 -0.000006 -0.000006 -0.027066 -0.203686 -24.911000
0.000000 0.000000 0.000000 0.000000 0.000000 -0.000000 0.727596 87.762900 -18.762500 90.955800 -3.191330 -1.573150 15.735700 0.000005 -0.000001 101.745000 82.919300 -102.574000 8.984550 -0.406207 -0.000000 6.126410 2.886580 -1.810120 16.377300 -0.000001 -0.000001 0.730565 -1.042070 0.404130 6.456720 -0.000001 -0.000000 4.049840 -4.540740 0.027643 12.994200 -0.242716 4.980390 -86.742600 -7.853260 -67.387800 5.348090 -0.000007 -0.000001 -71.367000 25.385000 17.234000 24.328600 0.000019 0.000005 4.907120 -1.388270 -105.759000 22.291600 -0.000001 0.000005 6.817630 5.630380 -13.361900 12.994500 -0.242716 -4.980390 89.694200 0.877021 -70.784300 -5.348130 -0.000001 -0.000004 -60.620100 43.538300 -23.532100 -24.328900 0.000322 -0.000009 1.900950 -0.129318 -93.907100 -22.291500 -0.000108 -0.000004 11.597700 5.557170 -9.048340 -2.192480 -6.469440 -0.000000 172.153000 -5.133270 -29.980300 39.081100 -0.000007 -0.000012 0.120508 -0.137657 41.199200 40.985400 -0.000006 -0.000013 6.997710 -3.025580 -63.777200 11.754300 -0.000000 0.000003 -0.004651 -0.058052 -18.938600 -2.192510 6.469440 -0.000001 175.177000 6.611920 176.617000 -39.081100 -0.002282 -0.040193 -0.034471 0.004864 82.544600 -40.985400 0.000008 0.000006 8.260560 -6.628680 -37.810000 -11.754300 -0.000006 -0.000006 -0.026918 -0.202976 -24.881600
0.000000 0.000000 0.000000 0.000000 0.000000 -0.000000 0.792288 84.900800 -9.828090 91.334800 -1.590630 -0.794694 15.735700 0.000005 -0.000001 93.452300 82.417800 -94.504800 8.984550 -0.406207 -0.000000 7.380750 0.913280 -2.161640 16.377300 -0.000001 -0.000001 -0.960296 -2.047480 1.145240 6.456720 -0.000001 -0.000000 2.709330 -3.275160 -0.108753 12.994200 -0.242716 4.980390 -88.467000 -3.917750 -68.610000 5.348090 -0.000007 -0.000001 -66.798500 23.961400 8.192530 24.328600 0.000019 0.000005 5.217940 -1.417820 -105.161000 22.291600 -0.000001 0.000005 7.704410 5.646810 -14.717700 12.994500 -0.242716 -4.980390 88.794200 3.284270 -69.828200 -5.348130 -0.000001 -0.000004 -64.366400 40.476000 -14.055900 -24.328900 0.000322 -0.000009 5.904780 0.407572 -86.083600 -22.291500 -0.000108 -0.000004 13.348600 5.596870 -11.150200 -2.192480 -6.469440 -0.000000 171.990000 -2.290990 -28.471500 39.081100 -0.000007 -0.000012 -0.414591 0.310273 53.190400 40.985400 -0.000006 -0.000013 5.785010 -5.738370 -76.022500 11.754300 -0.000000 0.000003 -0.000026 -0.000320 -16.590100 -2.192510 6.469440 -0.000001 175.984000 6.655390 167.037000 -39.081100 -0.002282 -0.040193 -0.260189 -0.034410 97.420800 -40.985400 0.000008 0.000006 11.877400 -9.273260 -38.549000 -11.754300 -0.000006 -0.000006 -0.025005 -0.193582 -24.492900
